<svg width="106" height="106" viewBox="0 0 106 106" fill="none" xmlns="http://www.w3.org/2000/svg">
<path d="M76.4375 37.375C76.4375 36.5125 75.7391 35.8125 74.875 35.8125H31.125C30.2609 35.8125 29.5625 36.5125 29.5625 37.375V68.625C29.5625 69.4875 30.2609 70.1875 31.125 70.1875H74.875C75.7391 70.1875 76.4375 69.4875 76.4375 68.625V56.125C76.4375 55.2625 75.7391 54.5625 74.875 54.5625C74.0109 54.5625 73.3125 55.2625 73.3125 56.125V67.0625H32.6875V49.5641H65.1094C65.9734 49.5641 66.6719 48.8641 66.6719 48.0016C66.6719 47.1391 65.9734 46.4391 65.1094 46.4391H32.6875V43.8203H65.1094C65.9734 43.8203 66.6719 43.1203 66.6719 42.2578C66.6719 41.3953 65.9734 40.6953 65.1094 40.6953H32.6875V38.9375H73.3125V41.4687C73.3125 42.3312 74.0109 43.0312 74.875 43.0312C75.7391 43.0312 76.4375 42.3312 76.4375 41.4687V37.375Z" fill="#EA1D1D"/>
<path d="M73.8063 46.8609L58.175 61.4859L50.9438 54.7187C50.3125 54.1281 49.3266 54.1609 48.7344 54.7922C48.1454 55.4219 48.1782 56.4109 48.8079 57L57.1094 64.7672C57.4094 65.0484 57.7938 65.1891 58.1782 65.1891C58.5625 65.1891 58.9453 65.0484 59.2469 64.7672L75.9469 49.1422C76.5766 48.5531 76.6094 47.5641 76.0204 46.9344C75.4266 46.3031 74.4391 46.2719 73.8063 46.8609Z" fill="#EA1D1D"/>
<circle cx="53" cy="53" r="50" stroke="#EA1D1D" stroke-width="5"/>
</svg>
