<svg width="106" height="106" viewBox="0 0 106 106" fill="none" xmlns="http://www.w3.org/2000/svg">
<path d="M55.0392 82.8856L61.0038 80.9661V79.4372L55.0392 81.3567V82.8856Z" fill="#CA0000"/>
<path d="M55.0392 80.0866L61.0038 78.1671V76.6381L55.0392 78.5577V80.0866Z" fill="#CA0000"/>
<path d="M74.6399 61.1874L74.639 61.1864L74.6382 61.1854C74.2889 60.7955 73.8393 60.5089 73.3384 60.3569L54.4083 54.6353C53.491 54.3556 52.5113 54.3556 51.594 54.6351L32.662 60.3573C32.1615 60.5093 31.7122 60.7958 31.3633 61.1854L31.3625 61.1865L31.3615 61.1874C30.8971 61.7086 30.6404 62.3823 30.6402 63.0804V78.1332C30.6377 78.7441 30.8331 79.3393 31.197 79.83C31.561 80.3206 32.074 80.6802 32.6593 80.8551L51.5861 86.6032C52.0444 86.7433 52.5209 86.8144 53.0001 86.8141C53.0656 86.8139 53.1309 86.8051 53.1942 86.7879C53.1926 86.7942 53.1918 86.8008 53.1902 86.8071C53.6047 86.7924 54.0155 86.724 54.4125 86.6036L73.3559 80.8501C73.9376 80.6728 74.4466 80.3128 74.8076 79.8234C75.1686 79.334 75.3622 78.7413 75.3598 78.1332V63.0804C75.3601 62.3825 75.1039 61.7088 74.6399 61.1874V61.1874ZM52.2481 85.2246C52.1731 85.2073 52.0986 85.1873 52.0247 85.1647L33.0963 79.416C32.8203 79.3337 32.5784 79.1642 32.4068 78.933C32.2352 78.7018 32.143 78.4212 32.144 78.1332V63.0804C32.1441 62.9055 32.1784 62.7323 32.2451 62.5706L51.8388 68.522L51.9101 68.5437L52.2481 68.6463V85.2246ZM53.0001 67.303L33.9868 61.5279L52.0302 56.0743C52.6633 55.8815 53.3394 55.8817 53.9724 56.0746L72.0145 61.5279L66.0913 63.3269L57.2352 60.6577C57.1385 60.6276 57.0351 60.6267 56.9378 60.655L52.4733 61.9226C52.4161 61.9389 52.3658 61.9733 52.3298 62.0206C52.2938 62.068 52.2741 62.1257 52.2736 62.1851C52.2731 62.2446 52.2919 62.3026 52.3272 62.3505C52.3624 62.3983 52.4122 62.4335 52.4691 62.4508L60.7658 64.9444L53.0001 67.303ZM73.856 78.1332C73.8573 78.4191 73.7667 78.6978 73.5973 78.9281C73.428 79.1584 73.189 79.3281 72.9157 79.412L53.9733 85.1653C53.9002 85.1877 53.8265 85.2075 53.752 85.2248V68.6464L62.0361 66.1303V72.286C62.0361 72.3678 62.055 72.4486 62.0913 72.5219C62.1276 72.5953 62.1804 72.6593 62.2455 72.7089C62.3106 72.7586 62.3863 72.7925 62.4666 72.8081C62.547 72.8237 62.6298 72.8205 62.7088 72.7989L66.9981 71.6174C67.1104 71.5865 67.2095 71.5196 67.2801 71.427C67.3507 71.3343 67.3888 71.221 67.3887 71.1045V64.6719C67.3887 64.6171 67.3852 64.5624 67.3782 64.508V64.5078L73.8559 62.5404L73.856 78.1332Z" fill="#CA0000"/>
<path d="M46.6742 27.8447C48.7066 25.8531 51.4401 24.7398 54.2856 24.7446C54.3721 24.7446 54.4582 24.7456 54.5454 24.7476C56.4719 24.7949 58.3517 25.3512 59.9938 26.36C61.6358 27.3688 62.9817 28.7942 63.8947 30.4913L64.1764 31.0168L61.5513 30.4333L61.1415 32.2763L65.958 33.347C66.1822 33.397 66.4169 33.3634 66.6181 33.2527C66.8193 33.1419 66.9732 32.9615 67.0508 32.7454L68.7231 28.1034L66.9471 27.4636L65.9241 30.3027L65.636 29.7479C64.5803 27.7159 62.9983 26.0048 61.0552 24.7932C59.1122 23.5817 56.8795 22.9141 54.5903 22.8604C54.4863 22.8578 54.3837 22.8566 54.2799 22.8566C50.9895 22.8618 47.8272 24.1332 45.4488 26.407C43.0704 28.6808 41.6582 31.7827 41.5051 35.0696L43.393 35.1149C43.5227 32.3625 44.6959 29.7628 46.6742 27.8447V27.8447Z" fill="#CA0000"/>
<path d="M42.1612 41.7509L42.4506 42.305C43.5116 44.3342 45.098 46.0411 47.0442 47.2477C48.9903 48.4542 51.2247 49.116 53.5139 49.164C53.6067 49.1659 53.6988 49.1669 53.791 49.1669C57.0873 49.162 60.2548 47.8863 62.6345 45.6054C65.0143 43.3245 66.423 40.2139 66.5678 36.9208L64.68 36.8805C64.5468 39.6803 63.3418 42.3216 61.3146 44.2573C59.2874 46.1931 56.5933 47.275 53.7904 47.279C53.7122 47.279 53.6329 47.2782 53.5544 47.2764C51.6277 47.2342 49.7465 46.6828 48.1018 45.6783C46.4572 44.6737 45.1076 43.2519 44.1903 41.557L43.9073 41.0322L46.5342 41.609L46.939 39.7648L42.1195 38.7069C41.8952 38.6573 41.6605 38.6913 41.4596 38.8026C41.2586 38.9139 41.1052 39.0948 41.0283 39.3112L39.3679 43.9574L41.1457 44.5927L42.1612 41.7509Z" fill="#CA0000"/>
<path d="M54.7849 42.3176V40.7175L55.0196 40.684C55.765 40.577 56.4422 40.1915 56.9148 39.6052C57.3874 39.019 57.6204 38.2754 57.5668 37.5242C57.5131 36.7731 57.1769 36.0702 56.6258 35.557C56.0746 35.0438 55.3495 34.7585 54.5965 34.7585H53.7341C53.4572 34.7575 53.1919 34.6467 52.9964 34.4505C52.8009 34.2544 52.6911 33.9887 52.6911 33.7117C52.6911 33.4348 52.8009 33.1691 52.9964 32.9729C53.1919 32.7767 53.4572 32.666 53.7341 32.665H57.3887V30.9643H55.0126V29.3612H53.3119V30.9889L53.1015 31.0387C52.446 31.1937 51.8704 31.5841 51.4839 32.1356C51.0974 32.6872 50.927 33.3615 51.0051 34.0305C51.0831 34.6995 51.4042 35.3164 51.9073 35.7642C52.4105 36.2119 53.0605 36.4593 53.734 36.4592H54.5964C54.9345 36.4603 55.2583 36.5953 55.497 36.8348C55.7356 37.0742 55.8696 37.3985 55.8696 37.7366C55.8696 38.0746 55.7356 38.3989 55.497 38.6383C55.2583 38.8778 54.9345 39.0129 54.5964 39.014H50.9358V40.7146H53.0842V42.3176H54.7849Z" fill="#CA0000"/>
<circle cx="53" cy="53" r="50" stroke="#EA1D1D" stroke-width="5"/>
</svg>
