<svg width="106" height="106" viewBox="0 0 106 106" fill="none" xmlns="http://www.w3.org/2000/svg">
<g clip-path="url(#clip0_328_128)">
<path d="M61.3333 30.0833C62.4839 30.0833 63.4166 31.0161 63.4166 32.1667V34.25H73.8333V46.75H69.6277L75.348 62.4664C75.7151 63.4059 75.9166 64.4284 75.9166 65.4979C75.9166 70.1003 72.1857 73.8313 67.5833 73.8313C63.701 73.8313 60.4388 71.1765 59.513 67.5833H50.6541C49.729 71.1776 46.4663 73.8333 42.5833 73.8333C38.5323 73.8333 35.1564 70.9427 34.4057 67.1116C33.0749 66.4159 32.1666 65.0224 32.1666 63.4167V42.5833C32.1666 41.4327 33.0994 40.5 34.25 40.5H48.8333C49.9839 40.5 50.9166 41.4327 50.9166 42.5833V53C50.9166 54.1506 51.8494 55.0833 53 55.0833H57.1666C58.3172 55.0833 59.25 54.1506 59.25 53V34.25H53V30.0833H61.3333ZM42.5833 61.3333C40.2821 61.3333 38.4166 63.1988 38.4166 65.5C38.4166 67.8012 40.2821 69.6667 42.5833 69.6667C44.8845 69.6667 46.75 67.8012 46.75 65.5C46.75 63.1988 44.8845 61.3333 42.5833 61.3333ZM67.5833 61.3313C65.2821 61.3313 63.4166 63.1967 63.4166 65.4979C63.4166 67.7991 65.2821 69.6646 67.5833 69.6646C69.8845 69.6646 71.75 67.7991 71.75 65.4979C71.75 64.9972 71.6616 64.5172 71.4997 64.0725L71.4657 63.9821C70.8594 62.4305 69.3497 61.3313 67.5833 61.3313ZM65.1937 46.75H63.4166V53C63.4166 56.4518 60.6184 59.25 57.1666 59.25H53C49.5482 59.25 46.75 56.4518 46.75 53H36.3333V59.9879C37.8603 58.2578 40.0943 57.1667 42.5833 57.1667C46.4663 57.1667 49.729 59.8224 50.6541 63.4167H59.512C60.4363 59.8214 63.6996 57.1646 67.5833 57.1646C68.0767 57.1646 68.56 57.2075 69.0298 57.2897L65.1937 46.75ZM46.75 44.6667H36.3333V48.8333H46.75V44.6667ZM69.6666 38.4167H63.4166V42.5833H69.6666V38.4167Z" fill="#EA1D1D"/>
</g>
<circle cx="53" cy="53" r="50" stroke="#EA1D1D" stroke-width="5"/>
<defs>
<clipPath id="clip0_328_128">
<rect width="50" height="50" fill="white" transform="translate(28 28)"/>
</clipPath>
</defs>
</svg>
