<svg width="225" height="32" viewBox="0 0 225 32" fill="none" xmlns="http://www.w3.org/2000/svg">
<g id="TheMonarchShoes">
<path d="M17.8691 4.59766C17.8053 5.03516 17.6367 5.77344 17.3633 6.8125C17.3268 6.94922 17.2129 7.01758 17.0215 7.01758C16.8118 7.01758 16.6706 6.9401 16.5977 6.78516C16.4154 6.39323 16.11 6.14258 15.6816 6.0332C15.3809 5.95117 14.5879 5.85547 13.3027 5.74609C12.0814 5.63672 11.252 5.58203 10.8145 5.58203C10.6868 5.58203 10.6185 5.64583 10.6094 5.77344C10.5 8.13411 10.4453 12.3359 10.4453 18.3789C10.4453 20.8581 10.6595 22.0977 11.0879 22.0977H13.2754C13.3301 22.0977 13.3574 22.1387 13.3574 22.2207V22.8633C13.3574 22.9544 13.3301 23 13.2754 23H5.37305C5.2819 23 5.23633 22.9544 5.23633 22.8633V22.248C5.23633 22.1478 5.2819 22.0977 5.37305 22.0977H7.36914C7.5332 22.0977 7.61523 21.9974 7.61523 21.7969C7.61523 21.7695 7.60612 21.3047 7.58789 20.4023C7.56966 19.5 7.56055 18.9577 7.56055 18.7754C7.56055 18.6204 7.58333 17.0664 7.62891 14.1133C7.67448 11.151 7.69727 9.60612 7.69727 9.47852C7.69727 6.86263 7.54688 5.55469 7.24609 5.55469C5.14062 5.55469 3.44531 5.74154 2.16016 6.11523C1.85938 6.20638 1.56315 6.40234 1.27148 6.70312C0.979818 6.99479 0.779297 7.1543 0.669922 7.18164C0.396484 7.2181 0.21875 7.18164 0.136719 7.07227C0.0638021 6.99023 0.0911458 6.83984 0.21875 6.62109C0.455729 5.81901 0.692708 5.08984 0.929688 4.43359C0.966146 4.3151 1.06641 4.26953 1.23047 4.29688C1.38542 4.3151 2.51107 4.36979 4.60742 4.46094C6.84961 4.55208 8.36719 4.59766 9.16016 4.59766C11.8034 4.59766 14.2826 4.5612 16.5977 4.48828C16.8711 4.47917 17.1263 4.46094 17.3633 4.43359C17.5729 4.39714 17.6732 4.37891 17.6641 4.37891C17.8008 4.37891 17.8691 4.45182 17.8691 4.59766ZM33.5234 22.8359C33.5234 22.9453 33.487 23 33.4141 23H27.5352C27.444 23 27.3984 22.9635 27.3984 22.8906V22.3301C27.3984 22.2389 27.444 22.1934 27.5352 22.1934H28.4102C28.5104 22.1934 28.5833 22.1159 28.6289 21.9609C28.7383 20.8581 28.793 18.8255 28.793 15.8633C28.793 14.2956 28.6061 13.2656 28.2324 12.7734C27.9316 12.3815 27.2891 12.1855 26.3047 12.1855C25.4844 12.1855 24.6641 12.3268 23.8438 12.6094C23.6888 12.6641 23.6113 12.7871 23.6113 12.9785C23.5566 13.3704 23.5293 15.5169 23.5293 19.418C23.5293 21.2682 23.6797 22.1934 23.9805 22.1934H25.498C25.5892 22.1934 25.6348 22.2389 25.6348 22.3301V22.8906C25.6348 22.9635 25.5892 23 25.498 23H18.9355C18.89 23 18.8535 22.9909 18.8262 22.9727C18.8079 22.9544 18.7988 22.9089 18.7988 22.8359V22.3027C18.7988 22.2298 18.8444 22.1934 18.9355 22.1934H20.5898C20.7448 22.1934 20.8223 22.1068 20.8223 21.9336L20.877 6.14258C20.877 5.31315 20.8678 4.83008 20.8496 4.69336C20.7676 4.05534 20.5534 3.73633 20.207 3.73633H18.6895C18.6439 3.72721 18.6074 3.7181 18.5801 3.70898C18.5618 3.69076 18.5527 3.64062 18.5527 3.55859V3.12109C18.5527 2.98438 18.5983 2.91602 18.6895 2.91602H19.332C20.4622 2.91602 21.4329 2.7793 22.2441 2.50586C23.0553 2.22331 23.5111 2.08203 23.6113 2.08203C23.7298 2.08203 23.7891 2.20964 23.7891 2.46484C23.7891 2.53776 23.7617 4.05534 23.707 7.01758C23.6615 9.9707 23.6387 11.4792 23.6387 11.543C23.6387 11.8438 23.6979 11.9577 23.8164 11.8848C24.2083 11.6204 24.778 11.3014 25.5254 10.9277C26.3092 10.5358 27.0247 10.3398 27.6719 10.3398C28.8659 10.3398 29.7819 10.6589 30.4199 11.2969C31.1673 12.0443 31.541 13.3021 31.541 15.0703C31.541 15.681 31.5228 16.7109 31.4863 18.1602C31.4499 19.6003 31.4316 20.3066 31.4316 20.2793C31.4316 21.5553 31.5228 22.1934 31.7051 22.1934H33.3594C33.4688 22.1934 33.5234 22.2207 33.5234 22.2754V22.8359ZM46.1426 20.8398C46.1243 20.8945 46.097 20.9447 46.0605 20.9902C45.459 21.5918 44.666 22.1113 43.6816 22.5488C42.6426 23.0137 41.5944 23.2461 40.5371 23.2461C38.8509 23.2461 37.5111 22.7721 36.5176 21.8242C35.3783 20.7396 34.7493 19.3314 34.6309 17.5996C34.5762 16.7064 34.6719 15.7812 34.918 14.8242C35.2734 13.457 35.8613 12.3952 36.6816 11.6387C37.5658 10.8092 38.6094 10.3945 39.8125 10.3945C40.7786 10.3945 41.7402 10.5723 42.6973 10.9277C43.5267 11.2376 44.2832 11.7344 44.9668 12.418C45.4408 12.8919 45.7871 13.3112 46.0059 13.6758C46.0788 13.776 46.1152 13.9173 46.1152 14.0996C46.1152 14.209 46.0378 14.2956 45.8828 14.3594C45.7279 14.4141 45.14 14.5508 44.1191 14.7695C43.1074 14.9792 42.4648 15.1022 42.1914 15.1387C41.6445 15.2207 41.0931 15.3073 40.5371 15.3984C39.4798 15.5534 38.7917 15.6309 38.4727 15.6309C38.4271 15.6309 38.2402 15.6354 37.9121 15.6445C37.5931 15.6536 37.4062 15.6582 37.3516 15.6582C37.2604 15.6582 37.224 15.877 37.2422 16.3145C37.3242 18.0645 37.8346 19.4909 38.7734 20.5938C39.0924 20.9583 39.6257 21.2409 40.373 21.4414C41.0293 21.6146 41.6855 21.6966 42.3418 21.6875C43.3626 21.6602 44.1738 21.4915 44.7754 21.1816C45.1582 20.9811 45.4453 20.7852 45.6367 20.5938C45.6732 20.5664 45.7188 20.5391 45.7734 20.5117C45.819 20.5117 45.9056 20.5755 46.0332 20.7031C46.1061 20.776 46.1426 20.8216 46.1426 20.8398ZM42.957 13.8398C42.957 13.8216 42.916 13.7031 42.834 13.4844C42.6152 13.0833 42.474 12.8372 42.4102 12.7461C42.2096 12.4727 41.9134 12.1764 41.5215 11.8574C40.9655 11.4108 40.3411 11.1875 39.6484 11.1875C39.0651 11.1875 38.5501 11.502 38.1035 12.1309C37.9486 12.3587 37.7891 12.7552 37.625 13.3203C37.4609 13.8763 37.3789 14.3229 37.3789 14.6602C37.3789 14.8424 37.4154 14.9336 37.4883 14.9336C37.9714 14.9336 38.6276 14.8971 39.457 14.8242C39.7396 14.7969 40.2956 14.6921 41.125 14.5098C41.9635 14.3275 42.5059 14.1908 42.752 14.0996C42.8887 14.0358 42.957 13.9492 42.957 13.8398ZM72.0508 22.8633C72.0508 22.9544 71.9915 23 71.873 23H65.3242C65.1966 23 65.1328 22.9544 65.1328 22.8633V22.248C65.1328 22.1478 65.1784 22.0977 65.2695 22.0977H66.5C66.7279 22.0977 66.8418 21.9883 66.8418 21.7695V14.8242C66.8418 12.1901 66.8053 10.2669 66.7324 9.05469C66.7142 8.79948 66.6686 8.67188 66.5957 8.67188C66.541 8.67188 66.4727 8.75391 66.3906 8.91797C65.9167 9.85677 64.1621 13.5983 61.127 20.1426C60.4707 21.5553 60.0241 22.5625 59.7871 23.1641C59.7233 23.319 59.582 23.3965 59.3633 23.3965C59.1354 23.3965 58.985 23.3281 58.9121 23.1914C56.6335 18.8529 55.2708 16.1868 54.8242 15.1934C54.0768 13.7077 53.097 11.6888 51.8848 9.13672C51.821 8.99089 51.7526 8.91797 51.6797 8.91797C51.5885 8.91797 51.5339 9.00911 51.5156 9.19141C51.388 11.151 51.3242 13.6803 51.3242 16.7793V19.6914C51.3242 21.2956 51.5475 22.0977 51.9941 22.0977H53.375C53.4661 22.0977 53.5117 22.1387 53.5117 22.2207V22.8633C53.5117 22.9544 53.4844 23 53.4297 23H48.2207C48.1113 23 48.0566 22.9635 48.0566 22.8906V22.3027C48.0566 22.166 48.1022 22.0977 48.1934 22.0977H49.5879C49.834 22.0977 49.957 21.8926 49.957 21.4824C49.957 20.7259 50.0299 18.1784 50.1758 13.8398C50.2396 12.7461 50.3171 10.8548 50.4082 8.16602C50.4264 6.81706 49.9479 5.92839 48.9727 5.5C48.7357 5.39062 48.3346 5.31771 47.7695 5.28125C47.6966 5.27214 47.6602 5.23112 47.6602 5.1582V4.57031C47.6602 4.4974 47.6966 4.46094 47.7695 4.46094H52.4727C52.6276 4.46094 52.7415 4.5293 52.8145 4.66602C53.3158 5.58659 54.1452 7.23633 55.3027 9.61523C55.5488 10.1165 56.3464 11.6706 57.6953 14.2773C59.1081 17.0117 59.8919 18.5065 60.0469 18.7617C60.2109 19.0169 60.3385 19.0579 60.4297 18.8848C61.4414 16.7064 62.5215 14.3822 63.6699 11.9121C64.7819 9.55143 65.9212 7.1543 67.0879 4.7207C67.2064 4.54753 67.3568 4.46094 67.5391 4.46094H71.2852C71.4036 4.46094 71.4629 4.4974 71.4629 4.57031V5.22656C71.4629 5.31771 71.4219 5.36328 71.3398 5.36328H70.3145C70.0137 5.36328 69.8359 5.66406 69.7812 6.26562C69.7266 6.86719 69.6992 9.05013 69.6992 12.8145C69.6992 15.7129 69.7266 17.791 69.7812 19.0488C69.8724 21.0814 70.1595 22.0977 70.6426 22.0977H71.9004C72.0007 22.0977 72.0508 22.1478 72.0508 22.248V22.8633ZM86.9531 16.5879C86.9531 17.8184 86.7344 18.862 86.2969 19.7188C85.75 20.8307 84.9844 21.6829 84 22.2754C83.0156 22.8678 81.8626 23.1641 80.541 23.1641C79.3288 23.1641 78.3945 23.0046 77.7383 22.6855C76.3984 22.0202 75.4915 21.2181 75.0176 20.2793C74.4434 19.14 74.1471 17.946 74.1289 16.6973C74.1016 15.321 74.4251 14.0905 75.0996 13.0059C75.7012 12.0397 76.5443 11.3105 77.6289 10.8184C78.4857 10.4264 79.6706 10.2305 81.1836 10.2305C82.3867 10.2305 83.403 10.472 84.2324 10.9551C85.1895 11.5202 85.8822 12.2904 86.3105 13.2656C86.7389 14.2318 86.9531 15.3392 86.9531 16.5879ZM84.2598 17.2578C84.2324 15.4896 83.804 14.0449 82.9746 12.9238C82.0905 11.7207 81.0059 11.151 79.7207 11.2148C78.7272 11.2604 78.0482 11.5566 77.6836 12.1035C77.1367 12.9147 76.8633 14.0632 76.8633 15.5488C76.8633 17.0618 77.1549 18.502 77.7383 19.8691C78.0938 20.7077 78.5768 21.3503 79.1875 21.7969C79.6797 22.1523 80.2676 22.3301 80.9512 22.3301C81.6803 22.3301 82.2318 22.1979 82.6055 21.9336C83.1615 21.5508 83.5898 20.9629 83.8906 20.1699C84.1549 19.4863 84.278 18.5156 84.2598 17.2578ZM103.004 22.8359C103.004 22.9453 102.967 23 102.895 23H97.0703C96.9792 23 96.9336 22.9635 96.9336 22.8906V22.3301C96.9336 22.2389 96.9792 22.1934 97.0703 22.1934H98.1094C98.2096 22.1934 98.2826 22.1159 98.3281 21.9609C98.4375 20.8581 98.4922 18.8255 98.4922 15.8633C98.4922 14.3685 98.2826 13.3841 97.8633 12.9102C97.444 12.4271 96.8242 12.1855 96.0039 12.1855C95.2018 12.1855 94.3815 12.3268 93.543 12.6094C93.388 12.6641 93.3105 12.7871 93.3105 12.9785C93.2559 13.3704 93.2285 15.5169 93.2285 19.418C93.2285 21.2682 93.3789 22.1934 93.6797 22.1934H95.0469C95.1471 22.1934 95.1973 22.2389 95.1973 22.3301V22.8906C95.1973 22.9635 95.1471 23 95.0469 23H88.7168C88.6712 23 88.6348 22.9909 88.6074 22.9727C88.5892 22.9544 88.5801 22.9089 88.5801 22.8359V22.3027C88.5801 22.2298 88.6257 22.1934 88.7168 22.1934H90.2891C90.4349 22.1934 90.5124 22.1068 90.5215 21.9336C90.5762 17.8503 90.6035 14.9564 90.6035 13.252C90.6035 11.8939 90.4531 11.2148 90.1523 11.2148H88.5527C88.4434 11.2148 88.3887 11.1602 88.3887 11.0508V10.5176C88.3887 10.4355 88.4251 10.3945 88.498 10.3945H90.3438C90.9271 10.3945 91.3965 10.3763 91.752 10.3398C92.6361 10.2487 93.11 10.2031 93.1738 10.2031C93.3014 10.2031 93.3652 10.3079 93.3652 10.5176C93.3652 10.5632 93.3607 10.7318 93.3516 11.0234C93.3424 11.306 93.3379 11.4792 93.3379 11.543C93.3379 11.8438 93.3971 11.9577 93.5156 11.8848C93.9622 11.584 94.5228 11.265 95.1973 10.9277C95.9811 10.5358 96.7057 10.3398 97.3711 10.3398C98.5651 10.3398 99.4811 10.6589 100.119 11.2969C100.867 12.0443 101.24 13.3021 101.24 15.0703C101.24 15.681 101.222 16.7109 101.186 18.1602C101.149 19.6003 101.131 20.3066 101.131 20.2793C101.131 21.3275 101.122 21.7148 101.104 21.4414C101.131 21.9427 101.231 22.1934 101.404 22.1934H102.84C102.949 22.1934 103.004 22.2207 103.004 22.2754V22.8359ZM116.512 22.0977C116.493 22.1432 116.448 22.2116 116.375 22.3027C115.91 22.7676 115.491 23.0911 115.117 23.2734C115.035 23.3372 114.949 23.3691 114.857 23.3691C114.192 23.3691 113.504 23.1185 112.793 22.6172C112.091 22.1068 111.604 21.5143 111.33 20.8398C111.266 20.6758 111.193 20.6576 111.111 20.7852C110.774 21.3411 110.355 21.8197 109.854 22.2207C109.051 22.8496 108.199 23.1641 107.297 23.1641C106.604 23.1641 105.989 23.0046 105.451 22.6855C104.84 22.321 104.535 21.7559 104.535 20.9902C104.535 20.0788 104.822 19.2767 105.396 18.584C105.971 17.8913 106.755 17.3672 107.748 17.0117C108.796 16.6289 109.908 16.3008 111.084 16.0273C111.166 16.0091 111.212 15.9089 111.221 15.7266C111.275 14.3685 111.275 13.4525 111.221 12.9785C111.166 12.5228 110.97 12.1582 110.633 11.8848C110.259 11.584 109.767 11.4336 109.156 11.4336C108.546 11.4336 108.04 11.5566 107.639 11.8027C107.447 11.9121 107.352 12.1172 107.352 12.418V12.9512C107.352 13.4251 107.251 13.8171 107.051 14.127C106.759 14.6647 106.253 14.9336 105.533 14.9336C104.977 14.9336 104.699 14.7012 104.699 14.2363C104.699 13.8079 104.923 13.2839 105.369 12.6641C105.825 12.0443 106.349 11.5703 106.941 11.2422C107.871 10.7135 109.001 10.4492 110.332 10.4492C111.499 10.4492 112.419 10.7227 113.094 11.2695C113.34 11.4609 113.54 11.8073 113.695 12.3086C113.832 12.7552 113.896 13.1562 113.887 13.5117L113.627 18.8574C113.59 19.8691 113.864 20.5983 114.447 21.0449C114.958 21.4368 115.573 21.7331 116.293 21.9336C116.439 21.9792 116.512 22.0339 116.512 22.0977ZM111.166 17.0938C111.166 16.9206 111.093 16.834 110.947 16.834C110.337 16.834 109.68 17.0117 108.979 17.3672C107.675 18.0326 107.023 18.9121 107.023 20.0059C107.023 20.6621 107.188 21.1361 107.516 21.4277C107.844 21.7103 108.222 21.8242 108.65 21.7695C109.37 21.6784 110.04 21.209 110.66 20.3613C110.824 20.1426 110.929 19.8919 110.975 19.6094C111.102 18.7253 111.166 17.8867 111.166 17.0938ZM127.176 11.8574C127.057 12.5957 126.889 13.1927 126.67 13.6484C126.624 13.7487 126.524 13.8626 126.369 13.9902C126.232 14.0085 126.118 13.9583 126.027 13.8398C125.69 13.3659 125.449 13.0788 125.303 12.9785C124.874 12.6777 124.419 12.5273 123.936 12.5273C123.033 12.5273 122.331 12.7233 121.83 13.1152C121.739 13.1882 121.693 13.3112 121.693 13.4844C121.693 13.5391 121.689 14.5872 121.68 16.6289C121.671 18.6706 121.666 19.7507 121.666 19.8691C121.666 21.4004 121.826 22.1751 122.145 22.1934L124.496 22.2754C124.605 22.2754 124.66 22.3392 124.66 22.4668V22.9453C124.66 23.0365 124.624 23.082 124.551 23.082L117.318 23C117.191 23 117.127 22.9544 117.127 22.8633V22.3848C117.127 22.2572 117.182 22.1934 117.291 22.1934H118.754C118.936 22.1934 119.027 22.1068 119.027 21.9336V13.1426C119.027 11.8939 118.872 11.2695 118.562 11.2695H117.072C116.981 11.2695 116.936 11.224 116.936 11.1328V10.5723C116.936 10.472 116.981 10.4219 117.072 10.4219H119.027C119.775 10.4219 120.335 10.3854 120.709 10.3125C121.101 10.1849 121.383 10.1211 121.557 10.1211C121.684 10.1211 121.748 10.2441 121.748 10.4902C121.748 10.554 121.739 10.7819 121.721 11.1738C121.702 11.5566 121.693 11.7754 121.693 11.8301C121.693 12.0853 121.757 12.1582 121.885 12.0488C122.541 11.5293 122.924 11.224 123.033 11.1328C123.771 10.6406 124.464 10.3945 125.111 10.3945C125.977 10.3945 126.647 10.75 127.121 11.4609C127.203 11.5885 127.221 11.7207 127.176 11.8574ZM139.686 20.7578C139.686 20.8945 139.453 21.1361 138.988 21.4824C137.457 22.6217 135.917 23.1914 134.367 23.1914C133.137 23.1914 132.193 23.0228 131.537 22.6855C130.443 22.1296 129.605 21.3548 129.021 20.3613C128.493 19.4863 128.229 18.3014 128.229 16.8066C128.229 15.9499 128.37 15.0612 128.652 14.1406C128.944 13.2109 129.541 12.3359 130.443 11.5156C131.355 10.6953 132.663 10.2852 134.367 10.2852C135.935 10.2852 137.211 10.7819 138.195 11.7754C138.815 12.3861 139.125 12.9375 139.125 13.4297C139.125 13.9492 138.929 14.209 138.537 14.209C137.872 14.209 137.302 13.9583 136.828 13.457C136.445 13.0469 136.158 12.5046 135.967 11.8301C135.857 11.4655 135.611 11.2422 135.229 11.1602C134.882 11.0872 134.604 11.0508 134.395 11.0508C133.82 11.0508 133.428 11.0872 133.219 11.1602C132.645 11.3607 132.166 11.7435 131.783 12.3086C131.209 13.1745 130.922 14.3776 130.922 15.918C130.922 17.6497 131.387 19.0944 132.316 20.252C133.027 21.1361 134.167 21.5781 135.734 21.5781C136.974 21.5781 138.022 21.2956 138.879 20.7305C138.988 20.6667 139.125 20.5755 139.289 20.457C139.398 20.3477 139.494 20.3659 139.576 20.5117C139.649 20.5846 139.686 20.6667 139.686 20.7578ZM155.613 22.8359C155.613 22.9453 155.577 23 155.504 23H149.625C149.534 23 149.488 22.9635 149.488 22.8906V22.3301C149.488 22.2389 149.534 22.1934 149.625 22.1934H150.5C150.6 22.1934 150.673 22.1159 150.719 21.9609C150.828 20.8581 150.883 18.8255 150.883 15.8633C150.883 14.2956 150.696 13.2656 150.322 12.7734C150.021 12.3815 149.379 12.1855 148.395 12.1855C147.574 12.1855 146.754 12.3268 145.934 12.6094C145.779 12.6641 145.701 12.7871 145.701 12.9785C145.646 13.3704 145.619 15.5169 145.619 19.418C145.619 21.2682 145.77 22.1934 146.07 22.1934H147.588C147.679 22.1934 147.725 22.2389 147.725 22.3301V22.8906C147.725 22.9635 147.679 23 147.588 23H141.025C140.98 23 140.943 22.9909 140.916 22.9727C140.898 22.9544 140.889 22.9089 140.889 22.8359V22.3027C140.889 22.2298 140.934 22.1934 141.025 22.1934H142.68C142.835 22.1934 142.912 22.1068 142.912 21.9336L142.967 6.14258C142.967 5.31315 142.958 4.83008 142.939 4.69336C142.857 4.05534 142.643 3.73633 142.297 3.73633H140.779C140.734 3.72721 140.697 3.7181 140.67 3.70898C140.652 3.69076 140.643 3.64062 140.643 3.55859V3.12109C140.643 2.98438 140.688 2.91602 140.779 2.91602H141.422C142.552 2.91602 143.523 2.7793 144.334 2.50586C145.145 2.22331 145.601 2.08203 145.701 2.08203C145.82 2.08203 145.879 2.20964 145.879 2.46484C145.879 2.53776 145.852 4.05534 145.797 7.01758C145.751 9.9707 145.729 11.4792 145.729 11.543C145.729 11.8438 145.788 11.9577 145.906 11.8848C146.298 11.6204 146.868 11.3014 147.615 10.9277C148.399 10.5358 149.115 10.3398 149.762 10.3398C150.956 10.3398 151.872 10.6589 152.51 11.2969C153.257 12.0443 153.631 13.3021 153.631 15.0703C153.631 15.681 153.613 16.7109 153.576 18.1602C153.54 19.6003 153.521 20.3066 153.521 20.2793C153.521 21.5553 153.613 22.1934 153.795 22.1934H155.449C155.559 22.1934 155.613 22.2207 155.613 22.2754V22.8359Z" fill="#EA1D1D"/>
<path d="M169.408 18.0781C169.408 19.4453 168.857 20.6393 167.754 21.6602C167.134 22.2253 166.469 22.6263 165.758 22.8633C165.001 23.1003 163.99 23.2188 162.723 23.2188C160.909 23.2188 159.191 22.7904 157.568 21.9336C157.432 21.8698 157.363 21.6829 157.363 21.373C157.363 21.3092 157.359 20.7533 157.35 19.7051C157.34 18.6569 157.336 18.0918 157.336 18.0098C157.336 17.9004 157.432 17.8457 157.623 17.8457H158.184C158.348 17.8457 158.439 17.9004 158.457 18.0098C158.457 18.347 158.484 18.6751 158.539 18.9941C158.685 19.8145 159.109 20.5299 159.811 21.1406C160.521 21.7422 161.501 22.043 162.75 22.043C164.445 22.043 165.612 21.4961 166.25 20.4023C166.523 19.9102 166.66 19.263 166.66 18.4609C166.66 17.7409 166.41 17.1621 165.908 16.7246C165.416 16.1595 164.445 15.6491 162.996 15.1934C161.383 14.6829 160.089 14.013 159.113 13.1836C158.138 12.3451 157.65 11.0918 157.65 9.42383C157.65 7.88346 158.329 6.56641 159.688 5.47266C160.745 4.63411 162.117 4.21484 163.803 4.21484C165.662 4.21484 167.12 4.625 168.178 5.44531C168.324 5.5638 168.406 5.68685 168.424 5.81445C168.524 6.41602 168.574 7.35482 168.574 8.63086C168.574 8.82227 168.533 8.91797 168.451 8.91797H167.781C167.681 8.91797 167.617 8.86328 167.59 8.75391C167.517 8.4349 167.421 8.08854 167.303 7.71484C167.13 7.15885 166.797 6.70768 166.305 6.36133C165.457 5.78711 164.372 5.5 163.051 5.5C162.039 5.5 161.255 5.76888 160.699 6.30664C160.079 6.91732 159.783 7.71029 159.811 8.68555C159.829 9.3418 160.125 9.97982 160.699 10.5996C160.991 10.9095 162.039 11.4199 163.844 12.1309C164.919 12.5592 165.699 12.901 166.182 13.1562C166.993 13.5846 167.676 14.0768 168.232 14.6328C169.016 15.4167 169.408 16.5651 169.408 18.0781ZM185.855 22.8359C185.855 22.9453 185.819 23 185.746 23H179.867C179.776 23 179.73 22.9635 179.73 22.8906V22.3301C179.73 22.2389 179.776 22.1934 179.867 22.1934H180.742C180.842 22.1934 180.915 22.1159 180.961 21.9609C181.07 20.8581 181.125 18.8255 181.125 15.8633C181.125 14.2956 180.938 13.2656 180.564 12.7734C180.264 12.3815 179.621 12.1855 178.637 12.1855C177.816 12.1855 176.996 12.3268 176.176 12.6094C176.021 12.6641 175.943 12.7871 175.943 12.9785C175.889 13.3704 175.861 15.5169 175.861 19.418C175.861 21.2682 176.012 22.1934 176.312 22.1934H177.83C177.921 22.1934 177.967 22.2389 177.967 22.3301V22.8906C177.967 22.9635 177.921 23 177.83 23H171.268C171.222 23 171.186 22.9909 171.158 22.9727C171.14 22.9544 171.131 22.9089 171.131 22.8359V22.3027C171.131 22.2298 171.176 22.1934 171.268 22.1934H172.922C173.077 22.1934 173.154 22.1068 173.154 21.9336L173.209 6.14258C173.209 5.31315 173.2 4.83008 173.182 4.69336C173.1 4.05534 172.885 3.73633 172.539 3.73633H171.021C170.976 3.72721 170.939 3.7181 170.912 3.70898C170.894 3.69076 170.885 3.64062 170.885 3.55859V3.12109C170.885 2.98438 170.93 2.91602 171.021 2.91602H171.664C172.794 2.91602 173.765 2.7793 174.576 2.50586C175.387 2.22331 175.843 2.08203 175.943 2.08203C176.062 2.08203 176.121 2.20964 176.121 2.46484C176.121 2.53776 176.094 4.05534 176.039 7.01758C175.993 9.9707 175.971 11.4792 175.971 11.543C175.971 11.8438 176.03 11.9577 176.148 11.8848C176.54 11.6204 177.11 11.3014 177.857 10.9277C178.641 10.5358 179.357 10.3398 180.004 10.3398C181.198 10.3398 182.114 10.6589 182.752 11.2969C183.499 12.0443 183.873 13.3021 183.873 15.0703C183.873 15.681 183.855 16.7109 183.818 18.1602C183.782 19.6003 183.764 20.3066 183.764 20.2793C183.764 21.5553 183.855 22.1934 184.037 22.1934H185.691C185.801 22.1934 185.855 22.2207 185.855 22.2754V22.8359ZM199.91 16.5879C199.91 17.8184 199.691 18.862 199.254 19.7188C198.707 20.8307 197.941 21.6829 196.957 22.2754C195.973 22.8678 194.82 23.1641 193.498 23.1641C192.286 23.1641 191.352 23.0046 190.695 22.6855C189.355 22.0202 188.449 21.2181 187.975 20.2793C187.4 19.14 187.104 17.946 187.086 16.6973C187.059 15.321 187.382 14.0905 188.057 13.0059C188.658 12.0397 189.501 11.3105 190.586 10.8184C191.443 10.4264 192.628 10.2305 194.141 10.2305C195.344 10.2305 196.36 10.472 197.189 10.9551C198.146 11.5202 198.839 12.2904 199.268 13.2656C199.696 14.2318 199.91 15.3392 199.91 16.5879ZM197.217 17.2578C197.189 15.4896 196.761 14.0449 195.932 12.9238C195.048 11.7207 193.963 11.151 192.678 11.2148C191.684 11.2604 191.005 11.5566 190.641 12.1035C190.094 12.9147 189.82 14.0632 189.82 15.5488C189.82 17.0618 190.112 18.502 190.695 19.8691C191.051 20.7077 191.534 21.3503 192.145 21.7969C192.637 22.1523 193.225 22.3301 193.908 22.3301C194.637 22.3301 195.189 22.1979 195.562 21.9336C196.118 21.5508 196.547 20.9629 196.848 20.1699C197.112 19.4863 197.235 18.5156 197.217 17.2578ZM213.104 20.8398C213.085 20.8945 213.058 20.9447 213.021 20.9902C212.42 21.5918 211.627 22.1113 210.643 22.5488C209.604 23.0137 208.555 23.2461 207.498 23.2461C205.812 23.2461 204.472 22.7721 203.479 21.8242C202.339 20.7396 201.71 19.3314 201.592 17.5996C201.537 16.7064 201.633 15.7812 201.879 14.8242C202.234 13.457 202.822 12.3952 203.643 11.6387C204.527 10.8092 205.57 10.3945 206.773 10.3945C207.74 10.3945 208.701 10.5723 209.658 10.9277C210.488 11.2376 211.244 11.7344 211.928 12.418C212.402 12.8919 212.748 13.3112 212.967 13.6758C213.04 13.776 213.076 13.9173 213.076 14.0996C213.076 14.209 212.999 14.2956 212.844 14.3594C212.689 14.4141 212.101 14.5508 211.08 14.7695C210.068 14.9792 209.426 15.1022 209.152 15.1387C208.605 15.2207 208.054 15.3073 207.498 15.3984C206.441 15.5534 205.753 15.6309 205.434 15.6309C205.388 15.6309 205.201 15.6354 204.873 15.6445C204.554 15.6536 204.367 15.6582 204.312 15.6582C204.221 15.6582 204.185 15.877 204.203 16.3145C204.285 18.0645 204.796 19.4909 205.734 20.5938C206.053 20.9583 206.587 21.2409 207.334 21.4414C207.99 21.6146 208.646 21.6966 209.303 21.6875C210.324 21.6602 211.135 21.4915 211.736 21.1816C212.119 20.9811 212.406 20.7852 212.598 20.5938C212.634 20.5664 212.68 20.5391 212.734 20.5117C212.78 20.5117 212.867 20.5755 212.994 20.7031C213.067 20.776 213.104 20.8216 213.104 20.8398ZM209.918 13.8398C209.918 13.8216 209.877 13.7031 209.795 13.4844C209.576 13.0833 209.435 12.8372 209.371 12.7461C209.171 12.4727 208.874 12.1764 208.482 11.8574C207.926 11.4108 207.302 11.1875 206.609 11.1875C206.026 11.1875 205.511 11.502 205.064 12.1309C204.91 12.3587 204.75 12.7552 204.586 13.3203C204.422 13.8763 204.34 14.3229 204.34 14.6602C204.34 14.8424 204.376 14.9336 204.449 14.9336C204.932 14.9336 205.589 14.8971 206.418 14.8242C206.701 14.7969 207.257 14.6921 208.086 14.5098C208.924 14.3275 209.467 14.1908 209.713 14.0996C209.85 14.0358 209.918 13.9492 209.918 13.8398ZM224.246 19.418C224.246 20.3568 223.904 21.2044 223.221 21.9609C222.446 22.7995 221.184 23.2188 219.434 23.2188C217.501 23.2188 215.897 22.7539 214.621 21.8242C214.493 21.6966 214.43 21.4915 214.43 21.209C214.43 21.1087 214.416 20.6576 214.389 19.8555C214.37 19.0534 214.361 18.625 214.361 18.5703C214.361 18.388 214.493 18.2969 214.758 18.2969C214.967 18.2969 215.09 18.3698 215.127 18.5156C215.236 18.9622 215.346 19.3359 215.455 19.6367C215.792 20.5208 216.225 21.2044 216.754 21.6875C216.918 21.8424 217.073 21.9427 217.219 21.9883C217.784 22.1797 218.513 22.2754 219.406 22.2754C220.445 22.2754 221.174 22.043 221.594 21.5781C222.022 21.1771 222.236 20.6348 222.236 19.9512C222.236 19.5866 222.059 19.2949 221.703 19.0762C221.102 18.7207 220.345 18.4062 219.434 18.1328C218.486 17.8411 217.775 17.5768 217.301 17.3398C216.335 16.8477 215.678 16.3919 215.332 15.9727C214.876 15.4076 214.648 14.6055 214.648 13.5664C214.648 12.7826 214.967 12.0534 215.605 11.3789C216.544 10.5951 217.757 10.2031 219.242 10.2031C221.047 10.2031 222.428 10.6224 223.385 11.4609C223.458 11.5247 223.494 11.6478 223.494 11.8301V13.9219C223.494 14.1497 223.43 14.2637 223.303 14.2637C223.029 14.2637 222.861 14.1999 222.797 14.0723C222.633 13.7168 222.473 13.3659 222.318 13.0195C222.072 12.5273 221.822 12.14 221.566 11.8574C221.503 11.8118 221.398 11.7389 221.252 11.6387C220.723 11.3197 220.062 11.1602 219.27 11.1602C218.577 11.1602 218.007 11.2786 217.561 11.5156C217.032 11.7982 216.763 12.2493 216.754 12.8691C216.727 13.8444 217.36 14.5508 218.654 14.9883C219.201 15.1979 219.93 15.4622 220.842 15.7812C221.826 16.0911 222.56 16.4329 223.043 16.8066C223.845 17.4264 224.246 18.2969 224.246 19.418Z" fill="black"/>
</g>
</svg>
